<?xml version="1.0" encoding="utf-8"?>
<!-- Generator: Adobe Illustrator 23.1.0, SVG Export Plug-In . SVG Version: 6.00 Build 0)  -->
<svg version="1.1" id="Layer_1" xmlns="http://www.w3.org/2000/svg" xmlns:xlink="http://www.w3.org/1999/xlink" x="0px" y="0px"
	 viewBox="0 0 351.4 362.1" style="enable-background:new 0 0 351.4 362.1;" xml:space="preserve">
<style type="text/css">
	.st0{fill:#FFFFFF;}
</style>
<g>
	<path class="st0" d="M344.2,140.6L195.9,5.7c-8.4-7.7-21.3-7.7-29.7,0L17.9,140.6c-9,8.1-9.6,22-1.4,30.9l0,0
		c4.4,4.7,10.3,7.1,16.3,7.1c5.3,0,10.6-1.9,14.8-5.7L181.1,51.5l133.4,121.3c9,8.2,22.9,7.6,31.1-1.4
		C353.8,162.5,353.2,148.7,344.2,140.6z"/>
	<path class="st0" d="M181.1,71.6L63.6,178.4v99.4L90,259.2l-0.4-1.5c-1.7-6.5-2.6-13.2-2.6-20c0-6,0.7-12,2.1-18.1
		c8.5-36.2,40.8-60.7,76.6-61l0,0h0.6c6,0,12.1,0.7,18.2,2.1c36.6,8.6,61.3,40.9,61.3,76.8l0,0c0,6-0.7,12-2.1,18l-0.1,0.2l0,0
		c-8.7,36.2-41.2,60.7-77.3,60.7c-6,0-12.1-0.7-18.2-2.1c-9.2-2.2-17.7-5.8-25.2-10.7l-1.2-0.8l-35.4,24.9h55.3h0.1h78.6H234h49
		c3.3,0,6.5-0.7,9.4-2.4c2.8-1.6,6.1-4.8,6.2-10.1V178.4L181.1,71.6z"/>
	<path class="st0" d="M232.1,238.4c0-30.3-20.9-57.6-51.8-64.8c-5.1-1.2-10.3-1.8-15.3-1.8h-0.6l0,0c-30.3,0.2-57.5,20.9-64.7,51.5
		c-1.2,5.1-1.8,10.2-1.8,15.3c0,5.8,0.8,11.5,2.2,16.9l0.3,1.2l-22.3,15.7l-3.4,2.4L8.9,321c-5.7,4-8.8,10.4-8.9,16.8l0.1,0.5
		L0,338.5c0.1,4,1.4,8.1,3.9,11.6l2.3,3.2c4.1,5.7,10.6,8.8,17.1,8.8l0,0l0,0c4.2,0,8.4-1.3,12.1-3.8l2.9-2.1l0,0l56.3-39.5l2.9-2
		l29.9-21l1,0.7c6.3,4.1,13.5,7.2,21.3,9c5.1,1.2,10.3,1.8,15.4,1.8l0,0c30.4,0,57.9-20.6,65.2-51.3l0,0v-0.2
		C231.5,248.5,232.1,243.4,232.1,238.4L232.1,238.4z M70.7,324.1l-1-1.5L70.7,324.1L35,347.7c-2.3,1.5-4.9,2.2-7.4,2.2
		c-4.3,0-8.6-2.1-11.1-5.9c-1.5-2.3-2.3-4.8-2.3-7.4c0-4.3,2.1-8.5,6-11.1l35.7-23.6c2.3-1.5,4.9-2.3,7.4-2.3
		c4.3,0,8.6,2.1,11.2,5.9c1.5,2.3,2.3,4.8,2.3,7.4C76.7,317.3,74.6,321.5,70.7,324.1z M166.2,280.9c-24.5,0-44.3-19.7-44.3-44
		s19.8-44,44.3-44s44.3,19.7,44.3,44S190.7,280.9,166.2,280.9z"/>
	<path class="st0" d="M148.5,269.7L148.5,269.7c5.4,2.2,10.9,3.2,16.3,3.2h0.1c14.4,0,27.7-7.5,33.1-20.6c0.8-1.9-0.1-4-2-4.8
		s-4,0.2-4.8,2c-4.1,10-14.4,16.1-26.4,16.1c-4.4,0-9-0.9-13.5-2.7c-1.9-0.8-4,0.1-4.8,2C145.8,266.8,146.7,269,148.5,269.7z"/>
</g>
</svg>
