<?xml version="1.0" encoding="utf-8"?>
<!-- Generator: Adobe Illustrator 23.1.0, SVG Export Plug-In . SVG Version: 6.00 Build 0)  -->
<svg version="1.1" xmlns="http://www.w3.org/2000/svg" xmlns:xlink="http://www.w3.org/1999/xlink" x="0px" y="0px"
	 viewBox="0 0 473.1 277.9" style="enable-background:new 0 0 473.1 277.9;" xml:space="preserve">
<style type="text/css">
	.st0{fill:none;}
	.st1{fill:none;stroke:#FFFFFF;stroke-width:2;stroke-linecap:round;stroke-linejoin:round;stroke-miterlimit:10;}
	.st2{fill:none;stroke:#FFFFFF;stroke-width:2;stroke-miterlimit:10;}
	.st3{display:none;}
	.st4{display:inline;fill:#8FB7DD;}
	.st5{display:none;fill:url(#New_Pattern_15);}
	.st6{display:none;fill:url(#SVGID_1_);}
	.st7{clip-path:url(#SVGID_3_);}
	.st8{fill:none;stroke:#5C88BD;stroke-width:2;stroke-linecap:round;stroke-linejoin:round;stroke-miterlimit:10;}
	.st9{fill:none;stroke:#5C88BD;stroke-width:2;stroke-miterlimit:10;}
</style>
<pattern  x="-378.1" y="-298.4" width="473.1" height="277.9" patternUnits="userSpaceOnUse" id="New_Pattern_15" viewBox="0 -363.9 473.1 277.9" style="overflow:visible;">
	<g>
		<rect y="-363.9" class="st0" width="473.1" height="277.9"/>
		<g>
			<polygon class="st1" points="298.8,-65.3 298.8,-1 343.7,-1 343.7,-95.9 			"/>
		</g>
		<g>
			<polygon class="st1" points="44.4,-290.6 44.4,-204.9 132.8,-204.9 132.8,-290.6 88.6,-333.4 			"/>
			<polygon class="st1" points="298.8,-343.2 298.8,-278.9 343.7,-278.9 343.7,-373.8 			"/>
			<line class="st1" x1="164.9" y1="-205.3" x2="164.9" y2="-236"/>
			<circle class="st1" cx="164.9" cy="-251.3" r="15.3"/>
			<circle class="st1" cx="21.8" cy="-209.2" r="8"/>
			<circle class="st1" cx="21.8" cy="-239.9" r="8"/>
			<circle class="st1" cx="112.2" cy="-344.6" r="8"/>
			<circle class="st1" cx="374.3" cy="-234.3" r="15"/>
			<line class="st1" x1="164.9" y1="-220.6" x2="157.2" y2="-228.3"/>
			<line class="st1" x1="164.9" y1="-213" x2="172.6" y2="-220.6"/>
			<line class="st1" x1="21.5" y1="-173.9" x2="21.5" y2="-201.3"/>
			<line class="st1" x1="21.5" y1="-189.3" x2="13.9" y2="-197"/>
			<line class="st1" x1="21.5" y1="-182.4" x2="29.2" y2="-190"/>
			<rect x="60.5" y="-237" class="st1" width="16.1" height="16.1"/>
			<rect x="60.5" y="-277.2" class="st1" width="16.1" height="16.1"/>
			<rect x="100.6" y="-277.2" class="st1" width="16.1" height="16.1"/>
			<rect x="150.7" y="-130.6" class="st1" width="9.4" height="9.4"/>
			<rect x="150.7" y="-112.6" class="st1" width="9.4" height="9.4"/>
			<polyline class="st1" points="423,-236.5 423,-247.7 434.2,-247.7 434.2,-236.5 			"/>
			<polyline class="st1" points="423,-214.7 423,-225.9 434.2,-225.9 434.2,-214.7 			"/>
			<polyline class="st1" points="423,-183.9 423,-205.9 434.2,-205.9 434.2,-183.9 			"/>
			<polyline class="st1" points="444.3,-236.5 444.3,-247.7 455.5,-247.7 455.5,-236.5 			"/>
			<polyline class="st1" points="444.3,-214.7 444.3,-225.9 455.5,-225.9 455.5,-214.7 			"/>
			<polyline class="st1" points="444.3,-195.2 444.3,-206.4 455.5,-206.4 455.5,-195.2 			"/>
			<rect x="315.4" y="-337.8" class="st1" width="11.6" height="11.6"/>
			<rect x="249.5" y="-328.7" class="st1" width="9.1" height="9.1"/>
			<rect x="375.8" y="-123.7" class="st1" width="9.1" height="9.1"/>
			<rect x="404.7" y="-123.7" class="st1" width="9.1" height="9.1"/>
			<rect x="433.7" y="-123.7" class="st1" width="9.1" height="9.1"/>
			<rect x="315.4" y="-312.5" class="st1" width="11.6" height="11.6"/>
			<rect x="357.7" y="-312.5" class="st1" width="11.6" height="11.6"/>
			<rect x="100.6" y="-229" class="st1" width="16.1" height="24.1"/>
			<rect x="212.9" y="-222.9" class="st1" width="36" height="126"/>
			<rect x="221.9" y="-204.9" class="st1" width="18" height="18"/>
			<rect x="221.9" y="-168.9" class="st1" width="18" height="18"/>
			<rect x="221.9" y="-132.9" class="st1" width="18" height="18"/>
			<rect x="248.9" y="-168.9" class="st1" width="54" height="72"/>
			<rect x="266.9" y="-132.9" class="st1" width="18" height="18"/>
			<polygon class="st1" points="320.9,-122 334.4,-163.3 347.9,-122 			"/>
			<line class="st1" x1="334.4" y1="-104.3" x2="334.4" y2="-122"/>
			<polyline class="st1" points="341.2,-242.3 210.9,-242.3 181.9,-272.3 			"/>
			<line class="st1" x1="366.5" y1="-164.7" x2="452.9" y2="-164.7"/>
			<polyline class="st1" points="468.6,-183.9 468.6,-262.8 412.2,-262.8 412.2,-183.9 			"/>
			<circle class="st1" cx="234.7" cy="-256.8" r="5.5"/>
			<circle class="st1" cx="266.9" cy="-256.8" r="5.5"/>
			<line class="st1" x1="228.4" y1="-273.9" x2="273.4" y2="-273.9"/>
			<line class="st1" x1="250.9" y1="-256.3" x2="250.9" y2="-286.3"/>
			<line class="st1" x1="241.9" y1="-255.9" x2="260.9" y2="-255.9"/>
			<path class="st1" d="M273.9-255.9h0.5c4.4,0,8-3.6,8-8v-2c0-4.4-3.6-8-8-8h-1v-1c0-4.4-1.9-12-8.9-12h-26.4
				c-8.5,0-9.7,7.6-9.7,12v1h-1c-4.4,0-8,3.6-8,8v2c0,4.4,3.6,8,8,8h1.5"/>
			<path class="st1" d="M122.2-205.3c0,42-12.8,55.3-54.6,55.3c-42.2,0-61.4,0-61.4,0"/>
			<path class="st1" d="M95.3-204.4c0,21.4-7.1,29.8-33.1,29.8c-35.4,0-55.4,0-55.4,0"/>
			<path class="st1" d="M374.6-199c0,0-8.1-0.5-11.7-4.7c-3.4-4-3.8-12.9-3.8-12.9s8.2,0.3,11.5,4.4C374.7-207,374.6-199,374.6-199z
				"/>
			<path class="st1" d="M374.2-199c0,0,7.9-0.5,11.3-4.7c3.3-4,3.7-12.9,3.7-12.9s-8,0.3-11.2,4.4C374.1-207,374.2-199,374.2-199z"
				/>
			<path class="st1" d="M141.6-188.3c0,0,0.5,7.9,4.7,11.3c4,3.3,12.9,3.7,12.9,3.7s-0.3-8-4.4-11.2
				C149.6-188.4,141.6-188.3,141.6-188.3z"/>
			<path class="st1" d="M160.3-188.3c0,0,0.5,7.9,4.7,11.3c4,3.3,12.9,3.7,12.9,3.7s-0.3-8-4.4-11.2
				C168.3-188.4,160.3-188.3,160.3-188.3z"/>
			<path class="st1" d="M179.1-188.3c0,0,0.5,7.9,4.7,11.3c4,3.3,12.9,3.7,12.9,3.7s-0.3-8-4.4-11.2
				C187.1-188.4,179.1-188.3,179.1-188.3z"/>
			<path class="st1" d="M262.5-201.7c0,0,0.5,7.9,4.7,11.3c4,3.3,12.9,3.7,12.9,3.7s-0.3-8-4.4-11.2
				C270.5-201.9,262.5-201.7,262.5-201.7z"/>
			<path class="st1" d="M161.2-306.4c0,0-5.6,5.5-5.6,11.6c0,5.2,5.6,11.4,5.6,11.4s5.7-6.2,5.7-11.4
				C166.9-301,161.2-306.4,161.2-306.4z"/>
			<polygon class="st1" points="384.9,-278.9 343.8,-278.9 343.8,-343.3 384.9,-322.9 			"/>
			<path class="st2" d="M440.8-301.1c0.2-0.5,0.3-1,0.3-1.6c0-2.5-2-4.4-4.4-4.4c-1,0-1.9,0.3-2.6,0.9c-1.1-3.1-4.1-5.3-7.5-5.3
				c-4.4,0-8,3.6-8,8c0,0.3,0,0.7,0.1,1c-0.1,0-0.2,0-0.4,0c-3.5,0-6.3,2.8-6.3,6.3c0,3.5,2.8,6.3,6.3,6.3c0.9,0,1.8-0.2,2.6-0.6
				c1.7,2.1,4.3,3.4,7.1,3.4c3.2,0,6-1.7,7.7-4.2c1,1,2.4,1.6,4,1.6c3.2,0,5.8-2.6,5.8-5.8C445.4-298.2,443.4-300.6,440.8-301.1z"/>
			<path class="st2" d="M185.1-312.6c-0.2-0.5-0.3-1-0.3-1.5c0-2.3,2-4.2,4.5-4.2c1,0,1.9,0.3,2.7,0.8c1.1-2.9,4.2-5,7.7-5
				c4.5,0,8.2,3.4,8.2,7.6c0,0.3,0,0.6-0.1,1c0.1,0,0.2,0,0.4,0c3.6,0,6.5,2.7,6.5,6c0,3.3-2.9,6-6.5,6c-0.9,0-1.8-0.2-2.7-0.5
				c-1.7,2-4.4,3.2-7.3,3.2c-3.3,0-6.2-1.6-7.9-3.9c-1.1,0.9-2.5,1.5-4.1,1.5c-3.3,0-5.9-2.5-5.9-5.5
				C180.3-309.9,182.4-312.1,185.1-312.6z"/>
			<line class="st1" x1="374.2" y1="-182.9" x2="374.2" y2="-219.2"/>
			<path class="st1" d="M293.2-225.8c0,25.6,15.4,44.2,40.3,44.2"/>
			<path class="st1" d="M309.6-225.3c0,15.4,9.2,26.6,24.2,26.6"/>
			<path class="st1" d="M193.6-345.3c0,0-27.7,0-40.8,0c-14.5,0-25,8.7-25,22.9"/>
			<path class="st1" d="M179.7-330.4c0,0-7,0-20.1,0c-14.5,0-20.2,7.9-20.2,20.8"/>
			<polyline class="st1" points="4.5,-318.2 20.5,-330.6 4.5,-344.1 61.8,-344.1 61.8,-307.2 			"/>
			<polyline class="st1" points="4.5,-318.1 20.5,-304.7 4.5,-292.3 			"/>
			<polyline class="st1" points="4.5,-292.3 20.5,-278.8 4.5,-266.4 44.4,-266.4 			"/>
			<polyline class="st1" points="17.8,-344.1 33.8,-330.6 17.8,-318.2 			"/>
			<polyline class="st1" points="17.8,-318.1 33.8,-304.7 17.8,-292.3 			"/>
			<polyline class="st1" points="17.8,-292.3 33.8,-278.8 17.8,-266.4 			"/>
			<polyline class="st1" points="394.8,-135.3 380.9,-151.3 365.8,-135.3 365.8,-99.2 			"/>
			<polyline class="st1" points="423.9,-135.3 410,-151.3 394.9,-135.3 394.9,-99.2 			"/>
			<polyline class="st1" points="423.9,-99.9 423.9,-135.3 439,-151.3 452.9,-135.3 452.9,-99.2 			"/>
			<polyline class="st1" points="108.4,-126.4 89.9,-98.3 73.8,-126.4 			"/>
			<polyline class="st1" points="73.7,-126.4 56.2,-98.3 40.1,-126.4 			"/>
			<polyline class="st1" points="40.1,-126.4 22.6,-98.3 6,-126.4 			"/>
			<path class="st1" d="M387.9-342.1c3.7,6.4,12.2,6.4,16.8,0s13.2-6.4,17.8,0s14.9,6.8,20-0.1c5-6.8,12.3-6.8,17.3,0"/>
			<path class="st1" d="M387.9-354.8c3.7,6.4,12.2,6.4,16.8,0c4.6-6.4,13.2-6.4,17.8,0c4.6,6.4,14.9,6.8,20-0.1s12.3-6.8,17.3,0"/>
			<line class="st1" x1="89.9" y1="-98.3" x2="22.6" y2="-98.3"/>
			<line class="st1" x1="108.4" y1="-126.4" x2="6" y2="-126.4"/>
			<path class="st1" d="M166.4-142.7c0,0-10.7-14.7-19.3-14.7c-8.7,0-18.7,4.7-18.7,19.3s0,26.4,0,26.4l11.3,13.1v-33.3
				c0-8.5,6.9-15.3,15.3-15.3s15.3,6.9,15.3,15.3v34h22.7"/>
			<polyline class="st2" points="268.5,-307.9 268.5,-335.9 254.3,-350.6 239.6,-335.9 239.6,-307.9 			"/>
			<polyline class="st2" points="254.3,-350.6 242.7,-360.4 227.8,-345.9 227.8,-307.2 			"/>
			<line class="st2" x1="239.6" y1="-335.9" x2="228.4" y2="-345.5"/>
			<line class="st2" x1="213.6" y1="-307.9" x2="299.6" y2="-307.9"/>
		</g>
	</g>
</pattern>
<g id="Layer_1" class="st3">
	<rect x="-378.1" y="-298.4" class="st4" width="1400" height="980"/>
</g>
<g id="Layer_2">
	<rect x="-378.1" y="-298.4" class="st5" width="1400" height="980"/>
	<pattern  id="SVGID_1_" xlink:href="#New_Pattern_15" patternTransform="matrix(1 0 0 1 104.329 -175.4368)">
	</pattern>
	<rect x="-233.6" y="-273.9" class="st6" width="1007.9" height="955.5"/>
	<g>
		<defs>
			<rect id="SVGID_2_" width="473.1" height="277.9"/>
		</defs>
		<clipPath id="SVGID_3_">
			<use xlink:href="#SVGID_2_"  style="overflow:visible;"/>
		</clipPath>
		<g class="st7">
			<g>
				<polygon class="st8" points="298.8,298.6 298.8,362.9 343.7,362.9 343.7,268 				"/>
			</g>
			<g>
				<polygon class="st8" points="44.4,73.4 44.4,159 132.8,159 132.8,73.4 88.6,30.5 				"/>
				<polygon class="st8" points="298.8,20.7 298.8,85 343.7,85 343.7,-9.9 				"/>
				<line class="st8" x1="164.9" y1="158.6" x2="164.9" y2="127.9"/>
				<circle class="st8" cx="164.9" cy="112.6" r="15.3"/>
				<circle class="st8" cx="21.8" cy="154.7" r="8"/>
				<circle class="st8" cx="21.8" cy="124" r="8"/>
				<circle class="st8" cx="112.2" cy="19.3" r="8"/>
				<circle class="st8" cx="374.3" cy="129.7" r="15"/>
				<line class="st8" x1="164.9" y1="143.3" x2="157.2" y2="135.6"/>
				<line class="st8" x1="164.9" y1="150.9" x2="172.6" y2="143.3"/>
				<line class="st8" x1="21.5" y1="190" x2="21.5" y2="162.6"/>
				<line class="st8" x1="21.5" y1="174.6" x2="13.9" y2="166.9"/>
				<line class="st8" x1="21.5" y1="181.5" x2="29.2" y2="173.9"/>
				<rect x="60.5" y="126.9" class="st8" width="16.1" height="16.1"/>
				<rect x="60.5" y="86.7" class="st8" width="16.1" height="16.1"/>
				<rect x="100.6" y="86.7" class="st8" width="16.1" height="16.1"/>
				<rect x="150.7" y="233.3" class="st8" width="9.4" height="9.4"/>
				<rect x="150.7" y="251.3" class="st8" width="9.4" height="9.4"/>
				<polyline class="st8" points="423,127.4 423,116.2 434.2,116.2 434.2,127.4 				"/>
				<polyline class="st8" points="423,149.2 423,138 434.2,138 434.2,149.2 				"/>
				<polyline class="st8" points="423,180 423,158 434.2,158 434.2,180 				"/>
				<polyline class="st8" points="444.3,127.4 444.3,116.2 455.5,116.2 455.5,127.4 				"/>
				<polyline class="st8" points="444.3,149.2 444.3,138 455.5,138 455.5,149.2 				"/>
				<polyline class="st8" points="444.3,168.7 444.3,157.5 455.5,157.5 455.5,168.7 				"/>
				<rect x="315.4" y="26.1" class="st8" width="11.6" height="11.6"/>
				<rect x="249.5" y="35.2" class="st8" width="9.1" height="9.1"/>
				<rect x="375.8" y="240.3" class="st8" width="9.1" height="9.1"/>
				<rect x="404.7" y="240.3" class="st8" width="9.1" height="9.1"/>
				<rect x="433.7" y="240.3" class="st8" width="9.1" height="9.1"/>
				<rect x="315.4" y="51.4" class="st8" width="11.6" height="11.6"/>
				<rect x="357.7" y="51.4" class="st8" width="11.6" height="11.6"/>
				<rect x="100.6" y="134.9" class="st8" width="16.1" height="24.1"/>
				<rect x="212.9" y="141" class="st8" width="36" height="126"/>
				<rect x="221.9" y="159" class="st8" width="18" height="18"/>
				<rect x="221.9" y="195" class="st8" width="18" height="18"/>
				<rect x="221.9" y="231" class="st8" width="18" height="18"/>
				<rect x="248.9" y="195" class="st8" width="54" height="72"/>
				<rect x="266.9" y="231" class="st8" width="18" height="18"/>
				<polygon class="st8" points="320.9,242 334.4,200.7 347.9,242 				"/>
				<line class="st8" x1="334.4" y1="259.7" x2="334.4" y2="242"/>
				<polyline class="st8" points="341.2,121.6 210.9,121.6 181.9,91.6 				"/>
				<line class="st8" x1="366.5" y1="199.3" x2="452.9" y2="199.3"/>
				<polyline class="st8" points="468.6,180 468.6,101.1 412.2,101.1 412.2,180 				"/>
				<circle class="st8" cx="234.7" cy="107.1" r="5.5"/>
				<circle class="st8" cx="266.9" cy="107.1" r="5.5"/>
				<line class="st8" x1="228.4" y1="90" x2="273.4" y2="90"/>
				<line class="st8" x1="250.9" y1="107.6" x2="250.9" y2="77.6"/>
				<line class="st8" x1="241.9" y1="108" x2="260.9" y2="108"/>
				<path class="st8" d="M273.9,108h0.5c4.4,0,8-3.6,8-8v-2c0-4.4-3.6-8-8-8h-1v-1c0-4.4-1.9-12-8.9-12h-26.4c-8.5,0-9.7,7.6-9.7,12
					v1h-1c-4.4,0-8,3.6-8,8v2c0,4.4,3.6,8,8,8h1.5"/>
				<path class="st8" d="M122.2,158.6c0,42-12.8,55.3-54.6,55.3c-42.2,0-61.4,0-61.4,0"/>
				<path class="st8" d="M95.3,159.6c0,21.4-7.1,29.8-33.1,29.8c-35.4,0-55.4,0-55.4,0"/>
				<path class="st8" d="M374.6,164.9c0,0-8.1-0.5-11.7-4.7c-3.4-4-3.8-12.9-3.8-12.9s8.2,0.3,11.5,4.4
					C374.7,156.9,374.6,164.9,374.6,164.9z"/>
				<path class="st8" d="M374.2,164.9c0,0,7.9-0.5,11.3-4.7c3.3-4,3.7-12.9,3.7-12.9s-8,0.3-11.2,4.4
					C374.1,156.9,374.2,164.9,374.2,164.9z"/>
				<path class="st8" d="M141.6,175.7c0,0,0.5,7.9,4.7,11.3c4,3.3,12.9,3.7,12.9,3.7s-0.3-8-4.4-11.2
					C149.6,175.5,141.6,175.7,141.6,175.7z"/>
				<path class="st8" d="M160.3,175.7c0,0,0.5,7.9,4.7,11.3c4,3.3,12.9,3.7,12.9,3.7s-0.3-8-4.4-11.2
					C168.3,175.5,160.3,175.7,160.3,175.7z"/>
				<path class="st8" d="M179.1,175.7c0,0,0.5,7.9,4.7,11.3c4,3.3,12.9,3.7,12.9,3.7s-0.3-8-4.4-11.2
					C187.1,175.5,179.1,175.7,179.1,175.7z"/>
				<path class="st8" d="M262.5,162.2c0,0,0.5,7.9,4.7,11.3c4,3.3,12.9,3.7,12.9,3.7s-0.3-8-4.4-11.2
					C270.5,162.1,262.5,162.2,262.5,162.2z"/>
				<path class="st8" d="M161.2,57.5c0,0-5.6,5.5-5.6,11.6c0,5.2,5.6,11.4,5.6,11.4s5.7-6.2,5.7-11.4
					C166.9,63,161.2,57.5,161.2,57.5z"/>
				<polygon class="st8" points="384.9,85 343.8,85 343.8,20.6 384.9,41 				"/>
				<path class="st9" d="M440.8,62.8c0.2-0.5,0.3-1,0.3-1.6c0-2.5-2-4.4-4.4-4.4c-1,0-1.9,0.3-2.6,0.9c-1.1-3.1-4.1-5.3-7.5-5.3
					c-4.4,0-8,3.6-8,8c0,0.3,0,0.7,0.1,1c-0.1,0-0.2,0-0.4,0c-3.5,0-6.3,2.8-6.3,6.3c0,3.5,2.8,6.3,6.3,6.3c0.9,0,1.8-0.2,2.6-0.6
					c1.7,2.1,4.3,3.4,7.1,3.4c3.2,0,6-1.7,7.7-4.2c1,1,2.4,1.6,4,1.6c3.2,0,5.8-2.6,5.8-5.8C445.4,65.7,443.4,63.4,440.8,62.8z"/>
				<path class="st9" d="M185.1,51.3c-0.2-0.5-0.3-1-0.3-1.5c0-2.3,2-4.2,4.5-4.2c1,0,1.9,0.3,2.7,0.8c1.1-2.9,4.2-5,7.7-5
					c4.5,0,8.2,3.4,8.2,7.6c0,0.3,0,0.6-0.1,1c0.1,0,0.2,0,0.4,0c3.6,0,6.5,2.7,6.5,6s-2.9,6-6.5,6c-0.9,0-1.8-0.2-2.7-0.5
					c-1.7,2-4.4,3.2-7.3,3.2c-3.3,0-6.2-1.6-7.9-3.9c-1.1,0.9-2.5,1.5-4.1,1.5c-3.3,0-5.9-2.5-5.9-5.5
					C180.3,54,182.4,51.8,185.1,51.3z"/>
				<line class="st8" x1="374.2" y1="181" x2="374.2" y2="144.7"/>
				<path class="st8" d="M293.2,138.2c0,25.6,15.4,44.2,40.3,44.2"/>
				<path class="st8" d="M309.6,138.6c0,15.4,9.2,26.6,24.2,26.6"/>
				<path class="st8" d="M193.6,18.6c0,0-27.7,0-40.8,0c-14.5,0-25,8.7-25,22.9"/>
				<path class="st8" d="M179.7,33.6c0,0-7,0-20.1,0c-14.5,0-20.2,7.9-20.2,20.8"/>
				<polyline class="st8" points="4.5,45.7 20.5,33.3 4.5,19.8 61.8,19.8 61.8,56.7 				"/>
				<polyline class="st8" points="4.5,45.8 20.5,59.3 4.5,71.7 				"/>
				<polyline class="st8" points="4.5,71.7 20.5,85.1 4.5,97.6 44.4,97.6 				"/>
				<polyline class="st8" points="17.8,19.8 33.8,33.3 17.8,45.7 				"/>
				<polyline class="st8" points="17.8,45.8 33.8,59.3 17.8,71.7 				"/>
				<polyline class="st8" points="17.8,71.7 33.8,85.1 17.8,97.6 				"/>
				<polyline class="st8" points="394.8,228.6 380.9,212.6 365.8,228.6 365.8,264.7 				"/>
				<polyline class="st8" points="423.9,228.6 410,212.6 394.9,228.6 394.9,264.7 				"/>
				<polyline class="st8" points="423.9,264 423.9,228.6 439,212.6 452.9,228.6 452.9,264.7 				"/>
				<polyline class="st8" points="108.4,237.5 89.9,265.6 73.8,237.5 				"/>
				<polyline class="st8" points="73.7,237.5 56.2,265.6 40.1,237.5 				"/>
				<polyline class="st8" points="40.1,237.5 22.6,265.6 6,237.5 				"/>
				<path class="st8" d="M387.9,21.8c3.7,6.4,12.2,6.4,16.8,0s13.2-6.4,17.8,0s14.9,6.8,20-0.1s12.3-6.8,17.3,0"/>
				<path class="st8" d="M387.9,9.2c3.7,6.4,12.2,6.4,16.8,0s13.2-6.4,17.8,0s14.9,6.8,20-0.1s12.3-6.8,17.3,0"/>
				<line class="st8" x1="89.9" y1="265.6" x2="22.6" y2="265.6"/>
				<line class="st8" x1="108.4" y1="237.5" x2="6" y2="237.5"/>
				<path class="st8" d="M166.4,221.2c0,0-10.7-14.7-19.3-14.7c-8.7,0-18.7,4.7-18.7,19.3c0,14.7,0,26.4,0,26.4l11.3,13.1V232
					c0-8.5,6.9-15.3,15.3-15.3s15.3,6.9,15.3,15.3v34h22.7"/>
				<polyline class="st9" points="268.5,56 268.5,28 254.3,13.3 239.6,28 239.6,56 				"/>
				<polyline class="st9" points="254.3,13.3 242.7,3.5 227.8,18 227.8,56.7 				"/>
				<line class="st9" x1="239.6" y1="28" x2="228.4" y2="18.4"/>
				<line class="st9" x1="213.6" y1="56" x2="299.6" y2="56"/>
			</g>
		</g>
	</g>
</g>
</svg>
